<svg width="39" height="68" viewBox="0 0 39 68" fill="none" xmlns="http://www.w3.org/2000/svg">
<path d="M32.3619 48.5632L33.1307 46.8977L36.48 48.53L35.0987 51.5065L32.3619 48.5632Z" fill="#E42A2A"/>
<path d="M26.49 23.15L27.1552 20.9038L30.4085 21.8016L29.6922 24.2905L26.49 23.15Z" fill="#E42A2A"/>
<path d="M29.6886 53.875V48.54H36.4786V53.875C36.4786 58.2077 35.153 61.5703 32.5016 63.963C29.8503 66.291 25.8733 67.455 20.5706 67.455C15.268 67.455 11.2586 66.291 8.54263 63.963C5.82663 61.5703 4.46863 58.2077 4.46863 53.875V15.075C4.46863 10.7423 5.7943 7.412 8.44563 5.084C11.097 2.69133 15.074 1.495 20.3766 1.495C25.6793 1.495 29.6886 2.69133 32.4046 5.084C35.1206 7.412 36.4786 10.7423 36.4786 15.075V24.29H29.6886V15.075C29.6886 9.90166 26.617 7.315 20.4736 7.315C14.3303 7.315 11.2586 9.90166 11.2586 15.075V53.875C11.2586 59.0483 14.3303 61.635 20.4736 61.635C26.617 61.635 29.6886 59.0483 29.6886 53.875Z" fill="#E42A2A"/>
<path d="M26.4889 52.125V46.9H33.1389V52.125C33.1389 56.3683 31.8405 59.6617 29.2439 62.005C26.6472 64.285 22.7522 65.425 17.5589 65.425C12.3655 65.425 8.43887 64.285 5.77887 62.005C3.11887 59.6617 1.78887 56.3683 1.78887 52.125V14.125C1.78887 9.88167 3.0872 6.62 5.68387 4.34C8.28053 1.99666 12.1755 0.824998 17.3689 0.824998C22.5622 0.824998 26.4889 1.99666 29.1489 4.34C31.8089 6.62 33.1389 9.88167 33.1389 14.125V23.15H26.4889V14.125C26.4889 9.05833 23.4805 6.525 17.4639 6.525C11.4472 6.525 8.43887 9.05833 8.43887 14.125V52.125C8.43887 57.1917 11.4472 59.725 17.4639 59.725C23.4805 59.725 26.4889 57.1917 26.4889 52.125Z" fill="white"/>
</svg>
